<mxfile host="app.diagrams.net" modified="2023-10-02T16:52:20.932Z" agent="Mozilla/5.0 (Windows NT 10.0; Win64; x64) AppleWebKit/537.36 (KHTML, like Gecko) Chrome/117.0.0.0 Safari/537.36" etag="U1d7z_y7rJTdYV-EKE3b" version="22.0.0" type="device" pages="5">
  <diagram id="C5RBs43oDa-KdzZeNtuy" name="Page-1">
    <mxGraphModel dx="1044" dy="2311" grid="1" gridSize="10" guides="1" tooltips="1" connect="1" arrows="1" fold="1" page="1" pageScale="1" pageWidth="827" pageHeight="1169" math="0" shadow="0">
      <root>
        <mxCell id="WIyWlLk6GJQsqaUBKTNV-0" />
        <mxCell id="WIyWlLk6GJQsqaUBKTNV-1" parent="WIyWlLk6GJQsqaUBKTNV-0" />
        <mxCell id="PPyj1vtdAgpXaEMW6hXH-0" value="hall" style="rounded=0;whiteSpace=wrap;html=1;" vertex="1" parent="WIyWlLk6GJQsqaUBKTNV-1">
          <mxGeometry x="840" y="-160" width="80" height="40" as="geometry" />
        </mxCell>
        <mxCell id="PPyj1vtdAgpXaEMW6hXH-1" value="instructor" style="rounded=0;whiteSpace=wrap;html=1;" vertex="1" parent="WIyWlLk6GJQsqaUBKTNV-1">
          <mxGeometry x="600" y="-360" width="80" height="40" as="geometry" />
        </mxCell>
        <mxCell id="PPyj1vtdAgpXaEMW6hXH-2" value="class" style="rounded=0;whiteSpace=wrap;html=1;" vertex="1" parent="WIyWlLk6GJQsqaUBKTNV-1">
          <mxGeometry x="360" y="-160" width="80" height="40" as="geometry" />
        </mxCell>
        <mxCell id="PPyj1vtdAgpXaEMW6hXH-3" value="category" style="rounded=0;whiteSpace=wrap;html=1;" vertex="1" parent="WIyWlLk6GJQsqaUBKTNV-1">
          <mxGeometry x="360" y="40" width="80" height="40" as="geometry" />
        </mxCell>
        <mxCell id="PPyj1vtdAgpXaEMW6hXH-4" value="falls_into" style="rhombus;whiteSpace=wrap;html=1;" vertex="1" parent="WIyWlLk6GJQsqaUBKTNV-1">
          <mxGeometry x="360" y="-70" width="80" height="60" as="geometry" />
        </mxCell>
        <mxCell id="PPyj1vtdAgpXaEMW6hXH-7" value="can_instruct" style="rhombus;whiteSpace=wrap;html=1;" vertex="1" parent="WIyWlLk6GJQsqaUBKTNV-1">
          <mxGeometry x="360" y="-370" width="80" height="60" as="geometry" />
        </mxCell>
        <mxCell id="PPyj1vtdAgpXaEMW6hXH-19" value="&lt;u&gt;id&lt;/u&gt;" style="ellipse;dashed=1+whiteSpace=wrap;html=1;dashPattern=1" vertex="1" parent="WIyWlLk6GJQsqaUBKTNV-1">
          <mxGeometry x="250" y="-260" width="85" height="40" as="geometry" />
        </mxCell>
        <mxCell id="PPyj1vtdAgpXaEMW6hXH-20" value="difficulty" style="ellipse;dashed=1+whiteSpace=wrap;html=1;dashPattern=1" vertex="1" parent="WIyWlLk6GJQsqaUBKTNV-1">
          <mxGeometry x="250" y="-60" width="85" height="40" as="geometry" />
        </mxCell>
        <mxCell id="PPyj1vtdAgpXaEMW6hXH-21" value="duration" style="ellipse;dashed=1+whiteSpace=wrap;html=1;dashPattern=1" vertex="1" parent="WIyWlLk6GJQsqaUBKTNV-1">
          <mxGeometry x="250" y="-110" width="85" height="40" as="geometry" />
        </mxCell>
        <mxCell id="PPyj1vtdAgpXaEMW6hXH-22" value="description" style="ellipse;dashed=1+whiteSpace=wrap;html=1;dashPattern=1" vertex="1" parent="WIyWlLk6GJQsqaUBKTNV-1">
          <mxGeometry x="250" y="-160" width="85" height="40" as="geometry" />
        </mxCell>
        <mxCell id="PPyj1vtdAgpXaEMW6hXH-23" value="&lt;u&gt;name&lt;/u&gt;" style="ellipse;dashed=1+whiteSpace=wrap;html=1;dashPattern=1" vertex="1" parent="WIyWlLk6GJQsqaUBKTNV-1">
          <mxGeometry x="250" y="-210" width="85" height="40" as="geometry" />
        </mxCell>
        <mxCell id="PPyj1vtdAgpXaEMW6hXH-29" value="&lt;u&gt;id&lt;/u&gt;" style="ellipse;dashed=1+whiteSpace=wrap;html=1;dashPattern=1" vertex="1" parent="WIyWlLk6GJQsqaUBKTNV-1">
          <mxGeometry x="302.5" y="120" width="85" height="40" as="geometry" />
        </mxCell>
        <mxCell id="PPyj1vtdAgpXaEMW6hXH-30" value="&lt;u&gt;name&lt;/u&gt;" style="ellipse;dashed=1+whiteSpace=wrap;html=1;dashPattern=1" vertex="1" parent="WIyWlLk6GJQsqaUBKTNV-1">
          <mxGeometry x="412.5" y="120" width="85" height="40" as="geometry" />
        </mxCell>
        <mxCell id="PPyj1vtdAgpXaEMW6hXH-31" value="" style="endArrow=none;html=1;rounded=0;entryX=0.75;entryY=1;entryDx=0;entryDy=0;exitX=0.5;exitY=0;exitDx=0;exitDy=0;" edge="1" parent="WIyWlLk6GJQsqaUBKTNV-1" source="PPyj1vtdAgpXaEMW6hXH-30" target="PPyj1vtdAgpXaEMW6hXH-3">
          <mxGeometry width="50" height="50" relative="1" as="geometry">
            <mxPoint x="100" y="40" as="sourcePoint" />
            <mxPoint x="150" y="-10" as="targetPoint" />
          </mxGeometry>
        </mxCell>
        <mxCell id="PPyj1vtdAgpXaEMW6hXH-32" value="" style="endArrow=none;html=1;rounded=0;exitX=0.5;exitY=0;exitDx=0;exitDy=0;entryX=0.25;entryY=1;entryDx=0;entryDy=0;" edge="1" parent="WIyWlLk6GJQsqaUBKTNV-1" source="PPyj1vtdAgpXaEMW6hXH-29" target="PPyj1vtdAgpXaEMW6hXH-3">
          <mxGeometry width="50" height="50" relative="1" as="geometry">
            <mxPoint x="100" y="40" as="sourcePoint" />
            <mxPoint x="150" y="-10" as="targetPoint" />
            <Array as="points" />
          </mxGeometry>
        </mxCell>
        <mxCell id="PPyj1vtdAgpXaEMW6hXH-33" value="date_of_birth" style="ellipse;dashed=1+whiteSpace=wrap;html=1;dashPattern=1" vertex="1" parent="WIyWlLk6GJQsqaUBKTNV-1">
          <mxGeometry x="700" y="-440" width="80" height="40" as="geometry" />
        </mxCell>
        <mxCell id="PPyj1vtdAgpXaEMW6hXH-34" value="&lt;u&gt;name&lt;/u&gt;" style="ellipse;dashed=1+whiteSpace=wrap;html=1;dashPattern=1" vertex="1" parent="WIyWlLk6GJQsqaUBKTNV-1">
          <mxGeometry x="600" y="-440" width="80" height="40" as="geometry" />
        </mxCell>
        <mxCell id="PPyj1vtdAgpXaEMW6hXH-35" value="&lt;u&gt;id&lt;/u&gt;" style="ellipse;dashed=1+whiteSpace=wrap;html=1;dashPattern=1" vertex="1" parent="WIyWlLk6GJQsqaUBKTNV-1">
          <mxGeometry x="500" y="-440" width="75" height="40" as="geometry" />
        </mxCell>
        <mxCell id="PPyj1vtdAgpXaEMW6hXH-39" value="num_of_places" style="ellipse;dashed=1+whiteSpace=wrap;html=1;dashPattern=1" vertex="1" parent="WIyWlLk6GJQsqaUBKTNV-1">
          <mxGeometry x="960" y="-110" width="85" height="40" as="geometry" />
        </mxCell>
        <mxCell id="PPyj1vtdAgpXaEMW6hXH-40" value="&lt;u&gt;name&lt;/u&gt;" style="ellipse;dashed=1+whiteSpace=wrap;html=1;dashPattern=1" vertex="1" parent="WIyWlLk6GJQsqaUBKTNV-1">
          <mxGeometry x="960" y="-160" width="85" height="40" as="geometry" />
        </mxCell>
        <mxCell id="PPyj1vtdAgpXaEMW6hXH-41" value="&lt;u&gt;id&lt;/u&gt;" style="ellipse;dashed=1+whiteSpace=wrap;html=1;dashPattern=1" vertex="1" parent="WIyWlLk6GJQsqaUBKTNV-1">
          <mxGeometry x="960" y="-210" width="85" height="40" as="geometry" />
        </mxCell>
        <mxCell id="PPyj1vtdAgpXaEMW6hXH-45" value="time" style="ellipse;dashed=1+whiteSpace=wrap;html=1;dashPattern=1" vertex="1" parent="WIyWlLk6GJQsqaUBKTNV-1">
          <mxGeometry x="600" y="-80" width="80" height="40" as="geometry" />
        </mxCell>
        <mxCell id="PPyj1vtdAgpXaEMW6hXH-46" value="start_time" style="ellipse;dashed=1+whiteSpace=wrap;html=1;dashPattern=1" vertex="1" parent="WIyWlLk6GJQsqaUBKTNV-1">
          <mxGeometry x="550" y="-20" width="80" height="40" as="geometry" />
        </mxCell>
        <mxCell id="PPyj1vtdAgpXaEMW6hXH-47" value="end_time" style="ellipse;dashed=1+whiteSpace=wrap;html=1;dashPattern=1" vertex="1" parent="WIyWlLk6GJQsqaUBKTNV-1">
          <mxGeometry x="650" y="-20" width="80" height="40" as="geometry" />
        </mxCell>
        <mxCell id="kDVFNCskQSXITMXLmUfB-0" value="timetable" style="rounded=0;whiteSpace=wrap;html=1;" vertex="1" parent="WIyWlLk6GJQsqaUBKTNV-1">
          <mxGeometry x="600" y="-160" width="80" height="40" as="geometry" />
        </mxCell>
        <mxCell id="kDVFNCskQSXITMXLmUfB-4" value="is_held" style="rhombus;whiteSpace=wrap;html=1;" vertex="1" parent="WIyWlLk6GJQsqaUBKTNV-1">
          <mxGeometry x="480" y="-170" width="80" height="60" as="geometry" />
        </mxCell>
        <mxCell id="kDVFNCskQSXITMXLmUfB-5" value="held_in" style="rhombus;whiteSpace=wrap;html=1;" vertex="1" parent="WIyWlLk6GJQsqaUBKTNV-1">
          <mxGeometry x="720" y="-170" width="80" height="60" as="geometry" />
        </mxCell>
        <mxCell id="kDVFNCskQSXITMXLmUfB-6" value="instructs" style="rhombus;whiteSpace=wrap;html=1;" vertex="1" parent="WIyWlLk6GJQsqaUBKTNV-1">
          <mxGeometry x="600" y="-270" width="80" height="60" as="geometry" />
        </mxCell>
        <mxCell id="kDVFNCskQSXITMXLmUfB-8" value="" style="endArrow=none;html=1;rounded=0;exitX=1;exitY=0.5;exitDx=0;exitDy=0;entryX=0;entryY=0.5;entryDx=0;entryDy=0;" edge="1" parent="WIyWlLk6GJQsqaUBKTNV-1" source="PPyj1vtdAgpXaEMW6hXH-20" target="PPyj1vtdAgpXaEMW6hXH-2">
          <mxGeometry width="50" height="50" relative="1" as="geometry">
            <mxPoint x="370" y="-80" as="sourcePoint" />
            <mxPoint x="420" y="-130" as="targetPoint" />
          </mxGeometry>
        </mxCell>
        <mxCell id="kDVFNCskQSXITMXLmUfB-9" value="" style="endArrow=none;html=1;rounded=0;exitX=1;exitY=0.5;exitDx=0;exitDy=0;entryX=0;entryY=0.5;entryDx=0;entryDy=0;" edge="1" parent="WIyWlLk6GJQsqaUBKTNV-1" source="PPyj1vtdAgpXaEMW6hXH-21" target="PPyj1vtdAgpXaEMW6hXH-2">
          <mxGeometry width="50" height="50" relative="1" as="geometry">
            <mxPoint x="370" y="-80" as="sourcePoint" />
            <mxPoint x="420" y="-130" as="targetPoint" />
          </mxGeometry>
        </mxCell>
        <mxCell id="kDVFNCskQSXITMXLmUfB-10" value="" style="endArrow=none;html=1;rounded=0;exitX=1;exitY=0.5;exitDx=0;exitDy=0;entryX=0;entryY=0.5;entryDx=0;entryDy=0;" edge="1" parent="WIyWlLk6GJQsqaUBKTNV-1" source="PPyj1vtdAgpXaEMW6hXH-22" target="PPyj1vtdAgpXaEMW6hXH-2">
          <mxGeometry width="50" height="50" relative="1" as="geometry">
            <mxPoint x="345" y="-80" as="sourcePoint" />
            <mxPoint x="370" y="-110" as="targetPoint" />
          </mxGeometry>
        </mxCell>
        <mxCell id="kDVFNCskQSXITMXLmUfB-11" value="" style="endArrow=none;html=1;rounded=0;exitX=1;exitY=0.5;exitDx=0;exitDy=0;" edge="1" parent="WIyWlLk6GJQsqaUBKTNV-1" source="PPyj1vtdAgpXaEMW6hXH-23">
          <mxGeometry width="50" height="50" relative="1" as="geometry">
            <mxPoint x="355" y="-70" as="sourcePoint" />
            <mxPoint x="360" y="-140" as="targetPoint" />
          </mxGeometry>
        </mxCell>
        <mxCell id="kDVFNCskQSXITMXLmUfB-12" value="" style="endArrow=none;html=1;rounded=0;exitX=1;exitY=0.5;exitDx=0;exitDy=0;" edge="1" parent="WIyWlLk6GJQsqaUBKTNV-1" source="PPyj1vtdAgpXaEMW6hXH-19">
          <mxGeometry width="50" height="50" relative="1" as="geometry">
            <mxPoint x="365" y="-60" as="sourcePoint" />
            <mxPoint x="360" y="-140" as="targetPoint" />
          </mxGeometry>
        </mxCell>
        <mxCell id="kDVFNCskQSXITMXLmUfB-13" value="" style="endArrow=none;html=1;rounded=0;exitX=0.5;exitY=1;exitDx=0;exitDy=0;entryX=0.5;entryY=0;entryDx=0;entryDy=0;" edge="1" parent="WIyWlLk6GJQsqaUBKTNV-1" source="PPyj1vtdAgpXaEMW6hXH-35" target="PPyj1vtdAgpXaEMW6hXH-1">
          <mxGeometry width="50" height="50" relative="1" as="geometry">
            <mxPoint x="650" y="-400" as="sourcePoint" />
            <mxPoint x="700" y="-450" as="targetPoint" />
          </mxGeometry>
        </mxCell>
        <mxCell id="kDVFNCskQSXITMXLmUfB-14" value="" style="endArrow=none;html=1;rounded=0;entryX=0.5;entryY=1;entryDx=0;entryDy=0;" edge="1" parent="WIyWlLk6GJQsqaUBKTNV-1" target="PPyj1vtdAgpXaEMW6hXH-34">
          <mxGeometry width="50" height="50" relative="1" as="geometry">
            <mxPoint x="640" y="-360" as="sourcePoint" />
            <mxPoint x="610" y="-350" as="targetPoint" />
          </mxGeometry>
        </mxCell>
        <mxCell id="kDVFNCskQSXITMXLmUfB-15" value="" style="endArrow=none;html=1;rounded=0;exitX=0.5;exitY=0;exitDx=0;exitDy=0;entryX=0.5;entryY=1;entryDx=0;entryDy=0;" edge="1" parent="WIyWlLk6GJQsqaUBKTNV-1" source="PPyj1vtdAgpXaEMW6hXH-1" target="PPyj1vtdAgpXaEMW6hXH-33">
          <mxGeometry width="50" height="50" relative="1" as="geometry">
            <mxPoint x="558" y="-380" as="sourcePoint" />
            <mxPoint x="620" y="-340" as="targetPoint" />
          </mxGeometry>
        </mxCell>
        <mxCell id="kDVFNCskQSXITMXLmUfB-16" value="" style="endArrow=none;html=1;rounded=0;entryX=0;entryY=0.5;entryDx=0;entryDy=0;exitX=1;exitY=0.5;exitDx=0;exitDy=0;" edge="1" parent="WIyWlLk6GJQsqaUBKTNV-1" source="PPyj1vtdAgpXaEMW6hXH-7" target="PPyj1vtdAgpXaEMW6hXH-1">
          <mxGeometry width="50" height="50" relative="1" as="geometry">
            <mxPoint x="500" y="-220" as="sourcePoint" />
            <mxPoint x="550" y="-270" as="targetPoint" />
          </mxGeometry>
        </mxCell>
        <mxCell id="kDVFNCskQSXITMXLmUfB-17" value="" style="endArrow=none;html=1;rounded=0;exitX=0.5;exitY=0;exitDx=0;exitDy=0;" edge="1" parent="WIyWlLk6GJQsqaUBKTNV-1" source="PPyj1vtdAgpXaEMW6hXH-2">
          <mxGeometry width="50" height="50" relative="1" as="geometry">
            <mxPoint x="500" y="-220" as="sourcePoint" />
            <mxPoint x="400" y="-310" as="targetPoint" />
          </mxGeometry>
        </mxCell>
        <mxCell id="kDVFNCskQSXITMXLmUfB-19" value="" style="endArrow=none;html=1;rounded=0;exitX=1;exitY=0.5;exitDx=0;exitDy=0;entryX=0;entryY=0.5;entryDx=0;entryDy=0;" edge="1" parent="WIyWlLk6GJQsqaUBKTNV-1" source="PPyj1vtdAgpXaEMW6hXH-2" target="kDVFNCskQSXITMXLmUfB-4">
          <mxGeometry width="50" height="50" relative="1" as="geometry">
            <mxPoint x="560" y="-130" as="sourcePoint" />
            <mxPoint x="610" y="-180" as="targetPoint" />
          </mxGeometry>
        </mxCell>
        <mxCell id="kDVFNCskQSXITMXLmUfB-20" value="" style="endArrow=none;html=1;rounded=0;exitX=1;exitY=0.5;exitDx=0;exitDy=0;entryX=0;entryY=0.5;entryDx=0;entryDy=0;" edge="1" parent="WIyWlLk6GJQsqaUBKTNV-1" source="kDVFNCskQSXITMXLmUfB-4" target="kDVFNCskQSXITMXLmUfB-0">
          <mxGeometry width="50" height="50" relative="1" as="geometry">
            <mxPoint x="600" y="-110" as="sourcePoint" />
            <mxPoint x="650" y="-160" as="targetPoint" />
          </mxGeometry>
        </mxCell>
        <mxCell id="kDVFNCskQSXITMXLmUfB-21" value="" style="endArrow=none;html=1;rounded=0;entryX=0.5;entryY=1;entryDx=0;entryDy=0;exitX=0.5;exitY=0;exitDx=0;exitDy=0;" edge="1" parent="WIyWlLk6GJQsqaUBKTNV-1" source="PPyj1vtdAgpXaEMW6hXH-45" target="kDVFNCskQSXITMXLmUfB-0">
          <mxGeometry width="50" height="50" relative="1" as="geometry">
            <mxPoint x="670" y="-70" as="sourcePoint" />
            <mxPoint x="720" y="-120" as="targetPoint" />
          </mxGeometry>
        </mxCell>
        <mxCell id="kDVFNCskQSXITMXLmUfB-22" value="" style="endArrow=none;html=1;rounded=0;entryX=0.5;entryY=1;entryDx=0;entryDy=0;exitX=0.5;exitY=0;exitDx=0;exitDy=0;" edge="1" parent="WIyWlLk6GJQsqaUBKTNV-1" source="PPyj1vtdAgpXaEMW6hXH-46" target="PPyj1vtdAgpXaEMW6hXH-45">
          <mxGeometry width="50" height="50" relative="1" as="geometry">
            <mxPoint x="670" y="-70" as="sourcePoint" />
            <mxPoint x="720" y="-120" as="targetPoint" />
          </mxGeometry>
        </mxCell>
        <mxCell id="kDVFNCskQSXITMXLmUfB-23" value="" style="endArrow=none;html=1;rounded=0;exitX=0.5;exitY=1;exitDx=0;exitDy=0;entryX=0.5;entryY=0;entryDx=0;entryDy=0;" edge="1" parent="WIyWlLk6GJQsqaUBKTNV-1" source="PPyj1vtdAgpXaEMW6hXH-45" target="PPyj1vtdAgpXaEMW6hXH-47">
          <mxGeometry width="50" height="50" relative="1" as="geometry">
            <mxPoint x="568" y="-370" as="sourcePoint" />
            <mxPoint x="630" y="-330" as="targetPoint" />
          </mxGeometry>
        </mxCell>
        <mxCell id="kDVFNCskQSXITMXLmUfB-24" value="day" style="ellipse;dashed=1+whiteSpace=wrap;html=1;dashPattern=1" vertex="1" parent="WIyWlLk6GJQsqaUBKTNV-1">
          <mxGeometry x="510" y="-80" width="80" height="40" as="geometry" />
        </mxCell>
        <mxCell id="kDVFNCskQSXITMXLmUfB-25" value="" style="endArrow=none;html=1;rounded=0;entryX=0.5;entryY=1;entryDx=0;entryDy=0;exitX=0.5;exitY=0;exitDx=0;exitDy=0;" edge="1" parent="WIyWlLk6GJQsqaUBKTNV-1" source="kDVFNCskQSXITMXLmUfB-24" target="kDVFNCskQSXITMXLmUfB-0">
          <mxGeometry width="50" height="50" relative="1" as="geometry">
            <mxPoint x="650" y="-60" as="sourcePoint" />
            <mxPoint x="680" y="-100" as="targetPoint" />
          </mxGeometry>
        </mxCell>
        <mxCell id="kDVFNCskQSXITMXLmUfB-26" value="max_ppl" style="ellipse;dashed=1+whiteSpace=wrap;html=1;dashPattern=1" vertex="1" parent="WIyWlLk6GJQsqaUBKTNV-1">
          <mxGeometry x="690" y="-80" width="80" height="40" as="geometry" />
        </mxCell>
        <mxCell id="kDVFNCskQSXITMXLmUfB-28" value="" style="endArrow=none;html=1;rounded=0;entryX=0.5;entryY=1;entryDx=0;entryDy=0;exitX=0.5;exitY=0;exitDx=0;exitDy=0;" edge="1" parent="WIyWlLk6GJQsqaUBKTNV-1" source="kDVFNCskQSXITMXLmUfB-26" target="kDVFNCskQSXITMXLmUfB-0">
          <mxGeometry width="50" height="50" relative="1" as="geometry">
            <mxPoint x="650" y="-70" as="sourcePoint" />
            <mxPoint x="650" y="-110" as="targetPoint" />
          </mxGeometry>
        </mxCell>
        <mxCell id="kDVFNCskQSXITMXLmUfB-29" value="" style="endArrow=none;html=1;rounded=0;entryX=0;entryY=0.5;entryDx=0;entryDy=0;exitX=1;exitY=0.5;exitDx=0;exitDy=0;" edge="1" parent="WIyWlLk6GJQsqaUBKTNV-1" source="PPyj1vtdAgpXaEMW6hXH-0" target="PPyj1vtdAgpXaEMW6hXH-41">
          <mxGeometry width="50" height="50" relative="1" as="geometry">
            <mxPoint x="960" y="-50" as="sourcePoint" />
            <mxPoint x="1010" y="-100" as="targetPoint" />
          </mxGeometry>
        </mxCell>
        <mxCell id="kDVFNCskQSXITMXLmUfB-30" value="" style="endArrow=none;html=1;rounded=0;entryX=0;entryY=0.5;entryDx=0;entryDy=0;exitX=1;exitY=0.5;exitDx=0;exitDy=0;" edge="1" parent="WIyWlLk6GJQsqaUBKTNV-1" source="PPyj1vtdAgpXaEMW6hXH-0" target="PPyj1vtdAgpXaEMW6hXH-40">
          <mxGeometry width="50" height="50" relative="1" as="geometry">
            <mxPoint x="930" y="-130" as="sourcePoint" />
            <mxPoint x="970" y="-180" as="targetPoint" />
          </mxGeometry>
        </mxCell>
        <mxCell id="kDVFNCskQSXITMXLmUfB-31" value="" style="endArrow=none;html=1;rounded=0;entryX=0;entryY=0.5;entryDx=0;entryDy=0;exitX=1;exitY=0.5;exitDx=0;exitDy=0;" edge="1" parent="WIyWlLk6GJQsqaUBKTNV-1" source="PPyj1vtdAgpXaEMW6hXH-0" target="PPyj1vtdAgpXaEMW6hXH-39">
          <mxGeometry width="50" height="50" relative="1" as="geometry">
            <mxPoint x="940" y="-120" as="sourcePoint" />
            <mxPoint x="980" y="-170" as="targetPoint" />
          </mxGeometry>
        </mxCell>
        <mxCell id="kDVFNCskQSXITMXLmUfB-32" value="" style="endArrow=none;html=1;rounded=0;entryX=0;entryY=0.5;entryDx=0;entryDy=0;exitX=1;exitY=0.5;exitDx=0;exitDy=0;" edge="1" parent="WIyWlLk6GJQsqaUBKTNV-1" source="kDVFNCskQSXITMXLmUfB-5" target="PPyj1vtdAgpXaEMW6hXH-0">
          <mxGeometry width="50" height="50" relative="1" as="geometry">
            <mxPoint x="760" y="-60" as="sourcePoint" />
            <mxPoint x="810" y="-110" as="targetPoint" />
          </mxGeometry>
        </mxCell>
        <mxCell id="kDVFNCskQSXITMXLmUfB-33" value="" style="endArrow=none;html=1;rounded=0;exitX=1;exitY=0.5;exitDx=0;exitDy=0;" edge="1" parent="WIyWlLk6GJQsqaUBKTNV-1" source="kDVFNCskQSXITMXLmUfB-0">
          <mxGeometry width="50" height="50" relative="1" as="geometry">
            <mxPoint x="810" y="-130" as="sourcePoint" />
            <mxPoint x="720" y="-140" as="targetPoint" />
          </mxGeometry>
        </mxCell>
        <mxCell id="kDVFNCskQSXITMXLmUfB-34" value="" style="endArrow=none;html=1;rounded=0;entryX=0.5;entryY=1;entryDx=0;entryDy=0;" edge="1" parent="WIyWlLk6GJQsqaUBKTNV-1" target="PPyj1vtdAgpXaEMW6hXH-1">
          <mxGeometry width="50" height="50" relative="1" as="geometry">
            <mxPoint x="640" y="-270" as="sourcePoint" />
            <mxPoint x="670" y="-190" as="targetPoint" />
          </mxGeometry>
        </mxCell>
        <mxCell id="kDVFNCskQSXITMXLmUfB-35" value="" style="endArrow=none;html=1;rounded=0;entryX=0.5;entryY=1;entryDx=0;entryDy=0;exitX=0.5;exitY=0;exitDx=0;exitDy=0;" edge="1" parent="WIyWlLk6GJQsqaUBKTNV-1" source="kDVFNCskQSXITMXLmUfB-0" target="kDVFNCskQSXITMXLmUfB-6">
          <mxGeometry width="50" height="50" relative="1" as="geometry">
            <mxPoint x="650" y="-260" as="sourcePoint" />
            <mxPoint x="650" y="-310" as="targetPoint" />
          </mxGeometry>
        </mxCell>
        <mxCell id="kDVFNCskQSXITMXLmUfB-36" value="" style="endArrow=none;html=1;rounded=0;exitX=0.5;exitY=1;exitDx=0;exitDy=0;entryX=0.5;entryY=0;entryDx=0;entryDy=0;" edge="1" parent="WIyWlLk6GJQsqaUBKTNV-1" source="PPyj1vtdAgpXaEMW6hXH-2" target="PPyj1vtdAgpXaEMW6hXH-4">
          <mxGeometry width="50" height="50" relative="1" as="geometry">
            <mxPoint x="500" y="-90" as="sourcePoint" />
            <mxPoint x="550" y="-140" as="targetPoint" />
          </mxGeometry>
        </mxCell>
        <mxCell id="kDVFNCskQSXITMXLmUfB-37" value="" style="endArrow=none;html=1;rounded=0;exitX=0.5;exitY=0;exitDx=0;exitDy=0;entryX=0.5;entryY=1;entryDx=0;entryDy=0;" edge="1" parent="WIyWlLk6GJQsqaUBKTNV-1" source="PPyj1vtdAgpXaEMW6hXH-3" target="PPyj1vtdAgpXaEMW6hXH-4">
          <mxGeometry width="50" height="50" relative="1" as="geometry">
            <mxPoint x="500" y="-90" as="sourcePoint" />
            <mxPoint x="550" y="-140" as="targetPoint" />
          </mxGeometry>
        </mxCell>
        <mxCell id="kDVFNCskQSXITMXLmUfB-38" value="N" style="text;html=1;align=center;verticalAlign=middle;resizable=0;points=[];autosize=1;strokeColor=none;fillColor=none;" vertex="1" parent="WIyWlLk6GJQsqaUBKTNV-1">
          <mxGeometry x="790" y="-170" width="30" height="30" as="geometry" />
        </mxCell>
        <mxCell id="kDVFNCskQSXITMXLmUfB-39" value="N" style="text;html=1;align=center;verticalAlign=middle;resizable=0;points=[];autosize=1;strokeColor=none;fillColor=none;" vertex="1" parent="WIyWlLk6GJQsqaUBKTNV-1">
          <mxGeometry x="640" y="-220" width="30" height="30" as="geometry" />
        </mxCell>
        <mxCell id="kDVFNCskQSXITMXLmUfB-40" value="N" style="text;html=1;align=center;verticalAlign=middle;resizable=0;points=[];autosize=1;strokeColor=none;fillColor=none;" vertex="1" parent="WIyWlLk6GJQsqaUBKTNV-1">
          <mxGeometry x="550" y="-170" width="30" height="30" as="geometry" />
        </mxCell>
        <mxCell id="kDVFNCskQSXITMXLmUfB-45" value="N" style="text;html=1;align=center;verticalAlign=middle;resizable=0;points=[];autosize=1;strokeColor=none;fillColor=none;" vertex="1" parent="WIyWlLk6GJQsqaUBKTNV-1">
          <mxGeometry x="398" y="-100" width="30" height="30" as="geometry" />
        </mxCell>
        <mxCell id="kDVFNCskQSXITMXLmUfB-46" value="N" style="text;html=1;align=center;verticalAlign=middle;resizable=0;points=[];autosize=1;strokeColor=none;fillColor=none;" vertex="1" parent="WIyWlLk6GJQsqaUBKTNV-1">
          <mxGeometry x="398" y="-310" width="30" height="30" as="geometry" />
        </mxCell>
        <mxCell id="kDVFNCskQSXITMXLmUfB-47" value="M" style="text;html=1;align=center;verticalAlign=middle;resizable=0;points=[];autosize=1;strokeColor=none;fillColor=none;" vertex="1" parent="WIyWlLk6GJQsqaUBKTNV-1">
          <mxGeometry x="440" y="-340" width="30" height="30" as="geometry" />
        </mxCell>
        <mxCell id="kDVFNCskQSXITMXLmUfB-48" value="1" style="text;html=1;align=center;verticalAlign=middle;resizable=0;points=[];autosize=1;strokeColor=none;fillColor=none;" vertex="1" parent="WIyWlLk6GJQsqaUBKTNV-1">
          <mxGeometry x="398" y="-10" width="30" height="30" as="geometry" />
        </mxCell>
        <mxCell id="kDVFNCskQSXITMXLmUfB-49" value="1" style="text;html=1;align=center;verticalAlign=middle;resizable=0;points=[];autosize=1;strokeColor=none;fillColor=none;" vertex="1" parent="WIyWlLk6GJQsqaUBKTNV-1">
          <mxGeometry x="450" y="-170" width="30" height="30" as="geometry" />
        </mxCell>
        <mxCell id="kDVFNCskQSXITMXLmUfB-50" value="1" style="text;html=1;align=center;verticalAlign=middle;resizable=0;points=[];autosize=1;strokeColor=none;fillColor=none;" vertex="1" parent="WIyWlLk6GJQsqaUBKTNV-1">
          <mxGeometry x="690" y="-170" width="30" height="30" as="geometry" />
        </mxCell>
        <mxCell id="kDVFNCskQSXITMXLmUfB-51" value="1" style="text;html=1;align=center;verticalAlign=middle;resizable=0;points=[];autosize=1;strokeColor=none;fillColor=none;" vertex="1" parent="WIyWlLk6GJQsqaUBKTNV-1">
          <mxGeometry x="640" y="-300" width="30" height="30" as="geometry" />
        </mxCell>
      </root>
    </mxGraphModel>
  </diagram>
  <diagram id="eqaWzPQrhRhgXX4sxKqG" name="Stránka-2">
    <mxGraphModel dx="2132" dy="1428" grid="1" gridSize="10" guides="1" tooltips="1" connect="1" arrows="1" fold="1" page="1" pageScale="1" pageWidth="827" pageHeight="1169" math="0" shadow="0">
      <root>
        <mxCell id="0" />
        <mxCell id="1" parent="0" />
        <mxCell id="j_vn0x6TCLS8eH2llTFm-51" value="category" style="swimlane;fontStyle=0;childLayout=stackLayout;horizontal=1;startSize=30;horizontalStack=0;resizeParent=1;resizeParentMax=0;resizeLast=0;collapsible=1;marginBottom=0;whiteSpace=wrap;html=1;" vertex="1" parent="1">
          <mxGeometry y="320" width="120" height="90" as="geometry" />
        </mxCell>
        <mxCell id="j_vn0x6TCLS8eH2llTFm-52" value="category_id pk" style="text;strokeColor=none;fillColor=none;align=left;verticalAlign=middle;spacingLeft=4;spacingRight=4;overflow=hidden;points=[[0,0.5],[1,0.5]];portConstraint=eastwest;rotatable=0;whiteSpace=wrap;html=1;" vertex="1" parent="j_vn0x6TCLS8eH2llTFm-51">
          <mxGeometry y="30" width="120" height="30" as="geometry" />
        </mxCell>
        <mxCell id="j_vn0x6TCLS8eH2llTFm-53" value="name u" style="text;strokeColor=none;fillColor=none;align=left;verticalAlign=middle;spacingLeft=4;spacingRight=4;overflow=hidden;points=[[0,0.5],[1,0.5]];portConstraint=eastwest;rotatable=0;whiteSpace=wrap;html=1;" vertex="1" parent="j_vn0x6TCLS8eH2llTFm-51">
          <mxGeometry y="60" width="120" height="30" as="geometry" />
        </mxCell>
        <mxCell id="j_vn0x6TCLS8eH2llTFm-55" value="class" style="swimlane;fontStyle=0;childLayout=stackLayout;horizontal=1;startSize=30;horizontalStack=0;resizeParent=1;resizeParentMax=0;resizeLast=0;collapsible=1;marginBottom=0;whiteSpace=wrap;html=1;" vertex="1" parent="1">
          <mxGeometry x="200" y="320" width="120" height="210" as="geometry" />
        </mxCell>
        <mxCell id="j_vn0x6TCLS8eH2llTFm-56" value="class_id pk" style="text;strokeColor=none;fillColor=none;align=left;verticalAlign=middle;spacingLeft=4;spacingRight=4;overflow=hidden;points=[[0,0.5],[1,0.5]];portConstraint=eastwest;rotatable=0;whiteSpace=wrap;html=1;" vertex="1" parent="j_vn0x6TCLS8eH2llTFm-55">
          <mxGeometry y="30" width="120" height="30" as="geometry" />
        </mxCell>
        <mxCell id="xYdeL9z6vV76iVaMo9Wf-86" value="category_id pk fk" style="text;strokeColor=none;fillColor=none;align=left;verticalAlign=middle;spacingLeft=4;spacingRight=4;overflow=hidden;points=[[0,0.5],[1,0.5]];portConstraint=eastwest;rotatable=0;whiteSpace=wrap;html=1;" vertex="1" parent="j_vn0x6TCLS8eH2llTFm-55">
          <mxGeometry y="60" width="120" height="30" as="geometry" />
        </mxCell>
        <mxCell id="j_vn0x6TCLS8eH2llTFm-57" value="name u" style="text;strokeColor=none;fillColor=none;align=left;verticalAlign=middle;spacingLeft=4;spacingRight=4;overflow=hidden;points=[[0,0.5],[1,0.5]];portConstraint=eastwest;rotatable=0;whiteSpace=wrap;html=1;" vertex="1" parent="j_vn0x6TCLS8eH2llTFm-55">
          <mxGeometry y="90" width="120" height="30" as="geometry" />
        </mxCell>
        <mxCell id="j_vn0x6TCLS8eH2llTFm-58" value="description" style="text;strokeColor=none;fillColor=none;align=left;verticalAlign=middle;spacingLeft=4;spacingRight=4;overflow=hidden;points=[[0,0.5],[1,0.5]];portConstraint=eastwest;rotatable=0;whiteSpace=wrap;html=1;" vertex="1" parent="j_vn0x6TCLS8eH2llTFm-55">
          <mxGeometry y="120" width="120" height="30" as="geometry" />
        </mxCell>
        <mxCell id="j_vn0x6TCLS8eH2llTFm-59" value="duration" style="text;strokeColor=none;fillColor=none;align=left;verticalAlign=middle;spacingLeft=4;spacingRight=4;overflow=hidden;points=[[0,0.5],[1,0.5]];portConstraint=eastwest;rotatable=0;whiteSpace=wrap;html=1;" vertex="1" parent="j_vn0x6TCLS8eH2llTFm-55">
          <mxGeometry y="150" width="120" height="30" as="geometry" />
        </mxCell>
        <mxCell id="j_vn0x6TCLS8eH2llTFm-60" value="difficulty" style="text;strokeColor=none;fillColor=none;align=left;verticalAlign=middle;spacingLeft=4;spacingRight=4;overflow=hidden;points=[[0,0.5],[1,0.5]];portConstraint=eastwest;rotatable=0;whiteSpace=wrap;html=1;" vertex="1" parent="j_vn0x6TCLS8eH2llTFm-55">
          <mxGeometry y="180" width="120" height="30" as="geometry" />
        </mxCell>
        <mxCell id="j_vn0x6TCLS8eH2llTFm-61" value="instructor" style="swimlane;fontStyle=0;childLayout=stackLayout;horizontal=1;startSize=30;horizontalStack=0;resizeParent=1;resizeParentMax=0;resizeLast=0;collapsible=1;marginBottom=0;whiteSpace=wrap;html=1;" vertex="1" parent="1">
          <mxGeometry x="400" y="320" width="120" height="120" as="geometry" />
        </mxCell>
        <mxCell id="j_vn0x6TCLS8eH2llTFm-63" value="name u" style="text;strokeColor=none;fillColor=none;align=left;verticalAlign=middle;spacingLeft=4;spacingRight=4;overflow=hidden;points=[[0,0.5],[1,0.5]];portConstraint=eastwest;rotatable=0;whiteSpace=wrap;html=1;" vertex="1" parent="j_vn0x6TCLS8eH2llTFm-61">
          <mxGeometry y="30" width="120" height="30" as="geometry" />
        </mxCell>
        <mxCell id="j_vn0x6TCLS8eH2llTFm-62" value="instructor_id pk" style="text;strokeColor=none;fillColor=none;align=left;verticalAlign=middle;spacingLeft=4;spacingRight=4;overflow=hidden;points=[[0,0.5],[1,0.5]];portConstraint=eastwest;rotatable=0;whiteSpace=wrap;html=1;" vertex="1" parent="j_vn0x6TCLS8eH2llTFm-61">
          <mxGeometry y="60" width="120" height="30" as="geometry" />
        </mxCell>
        <mxCell id="j_vn0x6TCLS8eH2llTFm-64" value="date_of_birth" style="text;strokeColor=none;fillColor=none;align=left;verticalAlign=middle;spacingLeft=4;spacingRight=4;overflow=hidden;points=[[0,0.5],[1,0.5]];portConstraint=eastwest;rotatable=0;whiteSpace=wrap;html=1;" vertex="1" parent="j_vn0x6TCLS8eH2llTFm-61">
          <mxGeometry y="90" width="120" height="30" as="geometry" />
        </mxCell>
        <mxCell id="j_vn0x6TCLS8eH2llTFm-67" value="hall" style="swimlane;fontStyle=0;childLayout=stackLayout;horizontal=1;startSize=30;horizontalStack=0;resizeParent=1;resizeParentMax=0;resizeLast=0;collapsible=1;marginBottom=0;whiteSpace=wrap;html=1;" vertex="1" parent="1">
          <mxGeometry x="800" y="320" width="120" height="150" as="geometry" />
        </mxCell>
        <mxCell id="xYdeL9z6vV76iVaMo9Wf-92" value="timetable_id&amp;nbsp; pk fk" style="text;strokeColor=none;fillColor=none;align=left;verticalAlign=middle;spacingLeft=4;spacingRight=4;overflow=hidden;points=[[0,0.5],[1,0.5]];portConstraint=eastwest;rotatable=0;whiteSpace=wrap;html=1;" vertex="1" parent="j_vn0x6TCLS8eH2llTFm-67">
          <mxGeometry y="30" width="120" height="30" as="geometry" />
        </mxCell>
        <mxCell id="j_vn0x6TCLS8eH2llTFm-68" value="hall_id pk" style="text;strokeColor=none;fillColor=none;align=left;verticalAlign=middle;spacingLeft=4;spacingRight=4;overflow=hidden;points=[[0,0.5],[1,0.5]];portConstraint=eastwest;rotatable=0;whiteSpace=wrap;html=1;" vertex="1" parent="j_vn0x6TCLS8eH2llTFm-67">
          <mxGeometry y="60" width="120" height="30" as="geometry" />
        </mxCell>
        <mxCell id="j_vn0x6TCLS8eH2llTFm-69" value="name u" style="text;strokeColor=none;fillColor=none;align=left;verticalAlign=middle;spacingLeft=4;spacingRight=4;overflow=hidden;points=[[0,0.5],[1,0.5]];portConstraint=eastwest;rotatable=0;whiteSpace=wrap;html=1;" vertex="1" parent="j_vn0x6TCLS8eH2llTFm-67">
          <mxGeometry y="90" width="120" height="30" as="geometry" />
        </mxCell>
        <mxCell id="j_vn0x6TCLS8eH2llTFm-70" value="num_of_places" style="text;strokeColor=none;fillColor=none;align=left;verticalAlign=middle;spacingLeft=4;spacingRight=4;overflow=hidden;points=[[0,0.5],[1,0.5]];portConstraint=eastwest;rotatable=0;whiteSpace=wrap;html=1;" vertex="1" parent="j_vn0x6TCLS8eH2llTFm-67">
          <mxGeometry y="120" width="120" height="30" as="geometry" />
        </mxCell>
        <mxCell id="j_vn0x6TCLS8eH2llTFm-73" value="can_instruct" style="swimlane;fontStyle=0;childLayout=stackLayout;horizontal=1;startSize=30;horizontalStack=0;resizeParent=1;resizeParentMax=0;resizeLast=0;collapsible=1;marginBottom=0;whiteSpace=wrap;html=1;" vertex="1" parent="1">
          <mxGeometry x="200" y="600" width="120" height="90" as="geometry" />
        </mxCell>
        <mxCell id="j_vn0x6TCLS8eH2llTFm-74" value="class_id pk fk" style="text;strokeColor=none;fillColor=none;align=left;verticalAlign=middle;spacingLeft=4;spacingRight=4;overflow=hidden;points=[[0,0.5],[1,0.5]];portConstraint=eastwest;rotatable=0;whiteSpace=wrap;html=1;" vertex="1" parent="j_vn0x6TCLS8eH2llTFm-73">
          <mxGeometry y="30" width="120" height="30" as="geometry" />
        </mxCell>
        <mxCell id="j_vn0x6TCLS8eH2llTFm-75" value="instructor_id pk fk" style="text;strokeColor=none;fillColor=none;align=left;verticalAlign=middle;spacingLeft=4;spacingRight=4;overflow=hidden;points=[[0,0.5],[1,0.5]];portConstraint=eastwest;rotatable=0;whiteSpace=wrap;html=1;" vertex="1" parent="j_vn0x6TCLS8eH2llTFm-73">
          <mxGeometry y="60" width="120" height="30" as="geometry" />
        </mxCell>
        <mxCell id="j_vn0x6TCLS8eH2llTFm-85" value="timetable" style="swimlane;fontStyle=0;childLayout=stackLayout;horizontal=1;startSize=30;horizontalStack=0;resizeParent=1;resizeParentMax=0;resizeLast=0;collapsible=1;marginBottom=0;whiteSpace=wrap;html=1;" vertex="1" parent="1">
          <mxGeometry x="600" y="320" width="120" height="210" as="geometry" />
        </mxCell>
        <mxCell id="xYdeL9z6vV76iVaMo9Wf-90" value="class_id&amp;nbsp; pk fk" style="text;strokeColor=none;fillColor=none;align=left;verticalAlign=middle;spacingLeft=4;spacingRight=4;overflow=hidden;points=[[0,0.5],[1,0.5]];portConstraint=eastwest;rotatable=0;whiteSpace=wrap;html=1;" vertex="1" parent="j_vn0x6TCLS8eH2llTFm-85">
          <mxGeometry y="30" width="120" height="30" as="geometry" />
        </mxCell>
        <mxCell id="xYdeL9z6vV76iVaMo9Wf-88" value="instructor_id&amp;nbsp; pk fk" style="text;strokeColor=none;fillColor=none;align=left;verticalAlign=middle;spacingLeft=4;spacingRight=4;overflow=hidden;points=[[0,0.5],[1,0.5]];portConstraint=eastwest;rotatable=0;whiteSpace=wrap;html=1;" vertex="1" parent="j_vn0x6TCLS8eH2llTFm-85">
          <mxGeometry y="60" width="120" height="30" as="geometry" />
        </mxCell>
        <mxCell id="xYdeL9z6vV76iVaMo9Wf-67" value="timetable_id&amp;nbsp; pk" style="text;strokeColor=none;fillColor=none;align=left;verticalAlign=middle;spacingLeft=4;spacingRight=4;overflow=hidden;points=[[0,0.5],[1,0.5]];portConstraint=eastwest;rotatable=0;whiteSpace=wrap;html=1;" vertex="1" parent="j_vn0x6TCLS8eH2llTFm-85">
          <mxGeometry y="90" width="120" height="30" as="geometry" />
        </mxCell>
        <mxCell id="xYdeL9z6vV76iVaMo9Wf-69" value="day" style="text;strokeColor=none;fillColor=none;align=left;verticalAlign=middle;spacingLeft=4;spacingRight=4;overflow=hidden;points=[[0,0.5],[1,0.5]];portConstraint=eastwest;rotatable=0;whiteSpace=wrap;html=1;" vertex="1" parent="j_vn0x6TCLS8eH2llTFm-85">
          <mxGeometry y="120" width="120" height="30" as="geometry" />
        </mxCell>
        <mxCell id="j_vn0x6TCLS8eH2llTFm-89" value="start_time" style="text;strokeColor=none;fillColor=none;align=left;verticalAlign=middle;spacingLeft=4;spacingRight=4;overflow=hidden;points=[[0,0.5],[1,0.5]];portConstraint=eastwest;rotatable=0;whiteSpace=wrap;html=1;" vertex="1" parent="j_vn0x6TCLS8eH2llTFm-85">
          <mxGeometry y="150" width="120" height="30" as="geometry" />
        </mxCell>
        <mxCell id="j_vn0x6TCLS8eH2llTFm-90" value="end_time" style="text;strokeColor=none;fillColor=none;align=left;verticalAlign=middle;spacingLeft=4;spacingRight=4;overflow=hidden;points=[[0,0.5],[1,0.5]];portConstraint=eastwest;rotatable=0;whiteSpace=wrap;html=1;" vertex="1" parent="j_vn0x6TCLS8eH2llTFm-85">
          <mxGeometry y="180" width="120" height="30" as="geometry" />
        </mxCell>
        <mxCell id="xYdeL9z6vV76iVaMo9Wf-87" style="edgeStyle=orthogonalEdgeStyle;rounded=0;orthogonalLoop=1;jettySize=auto;html=1;entryX=1;entryY=0.5;entryDx=0;entryDy=0;" edge="1" parent="1" source="xYdeL9z6vV76iVaMo9Wf-86" target="j_vn0x6TCLS8eH2llTFm-52">
          <mxGeometry relative="1" as="geometry" />
        </mxCell>
        <mxCell id="xYdeL9z6vV76iVaMo9Wf-89" style="edgeStyle=orthogonalEdgeStyle;rounded=0;orthogonalLoop=1;jettySize=auto;html=1;" edge="1" parent="1" source="xYdeL9z6vV76iVaMo9Wf-88" target="j_vn0x6TCLS8eH2llTFm-62">
          <mxGeometry relative="1" as="geometry" />
        </mxCell>
        <mxCell id="xYdeL9z6vV76iVaMo9Wf-93" style="edgeStyle=orthogonalEdgeStyle;rounded=0;orthogonalLoop=1;jettySize=auto;html=1;" edge="1" parent="1" source="xYdeL9z6vV76iVaMo9Wf-92" target="xYdeL9z6vV76iVaMo9Wf-67">
          <mxGeometry relative="1" as="geometry" />
        </mxCell>
        <mxCell id="xYdeL9z6vV76iVaMo9Wf-94" style="edgeStyle=orthogonalEdgeStyle;rounded=0;orthogonalLoop=1;jettySize=auto;html=1;" edge="1" parent="1" source="j_vn0x6TCLS8eH2llTFm-75" target="j_vn0x6TCLS8eH2llTFm-62">
          <mxGeometry relative="1" as="geometry">
            <Array as="points">
              <mxPoint x="360" y="675" />
              <mxPoint x="360" y="395" />
            </Array>
          </mxGeometry>
        </mxCell>
        <mxCell id="xYdeL9z6vV76iVaMo9Wf-95" style="edgeStyle=orthogonalEdgeStyle;rounded=0;orthogonalLoop=1;jettySize=auto;html=1;entryX=0;entryY=0.5;entryDx=0;entryDy=0;" edge="1" parent="1" source="j_vn0x6TCLS8eH2llTFm-74" target="j_vn0x6TCLS8eH2llTFm-52">
          <mxGeometry relative="1" as="geometry" />
        </mxCell>
        <mxCell id="xYdeL9z6vV76iVaMo9Wf-96" style="edgeStyle=orthogonalEdgeStyle;rounded=0;orthogonalLoop=1;jettySize=auto;html=1;entryX=1;entryY=0.5;entryDx=0;entryDy=0;" edge="1" parent="1" source="xYdeL9z6vV76iVaMo9Wf-90" target="j_vn0x6TCLS8eH2llTFm-56">
          <mxGeometry relative="1" as="geometry">
            <Array as="points">
              <mxPoint x="560" y="365" />
              <mxPoint x="560" y="280" />
              <mxPoint x="360" y="280" />
              <mxPoint x="360" y="365" />
            </Array>
          </mxGeometry>
        </mxCell>
      </root>
    </mxGraphModel>
  </diagram>
  <diagram id="dd2m5BJkTERGji2SkHXd" name="Stránka-3">
    <mxGraphModel dx="746" dy="816" grid="1" gridSize="10" guides="1" tooltips="1" connect="1" arrows="1" fold="1" page="1" pageScale="1" pageWidth="827" pageHeight="1169" math="0" shadow="0">
      <root>
        <mxCell id="0" />
        <mxCell id="1" parent="0" />
        <mxCell id="D-iu5UsWx28mBIkiza5J-1" value="show" style="swimlane;fontStyle=0;childLayout=stackLayout;horizontal=1;startSize=30;horizontalStack=0;resizeParent=1;resizeParentMax=0;resizeLast=0;collapsible=1;marginBottom=0;whiteSpace=wrap;html=1;" vertex="1" parent="1">
          <mxGeometry x="120" y="160" width="120" height="120" as="geometry" />
        </mxCell>
        <mxCell id="D-iu5UsWx28mBIkiza5J-2" value="show_id pk" style="text;strokeColor=none;fillColor=none;align=left;verticalAlign=middle;spacingLeft=4;spacingRight=4;overflow=hidden;points=[[0,0.5],[1,0.5]];portConstraint=eastwest;rotatable=0;whiteSpace=wrap;html=1;" vertex="1" parent="D-iu5UsWx28mBIkiza5J-1">
          <mxGeometry y="30" width="120" height="30" as="geometry" />
        </mxCell>
        <mxCell id="D-iu5UsWx28mBIkiza5J-3" value="name u" style="text;strokeColor=none;fillColor=none;align=left;verticalAlign=middle;spacingLeft=4;spacingRight=4;overflow=hidden;points=[[0,0.5],[1,0.5]];portConstraint=eastwest;rotatable=0;whiteSpace=wrap;html=1;" vertex="1" parent="D-iu5UsWx28mBIkiza5J-1">
          <mxGeometry y="60" width="120" height="30" as="geometry" />
        </mxCell>
        <mxCell id="D-iu5UsWx28mBIkiza5J-4" value="date" style="text;strokeColor=none;fillColor=none;align=left;verticalAlign=middle;spacingLeft=4;spacingRight=4;overflow=hidden;points=[[0,0.5],[1,0.5]];portConstraint=eastwest;rotatable=0;whiteSpace=wrap;html=1;" vertex="1" parent="D-iu5UsWx28mBIkiza5J-1">
          <mxGeometry y="90" width="120" height="30" as="geometry" />
        </mxCell>
        <mxCell id="D-iu5UsWx28mBIkiza5J-12" value="ignition" style="swimlane;fontStyle=0;childLayout=stackLayout;horizontal=1;startSize=30;horizontalStack=0;resizeParent=1;resizeParentMax=0;resizeLast=0;collapsible=1;marginBottom=0;whiteSpace=wrap;html=1;" vertex="1" parent="1">
          <mxGeometry x="320" y="160" width="160" height="120" as="geometry" />
        </mxCell>
        <mxCell id="D-iu5UsWx28mBIkiza5J-14" value="ignition_serial_number pk" style="text;strokeColor=none;fillColor=none;align=left;verticalAlign=middle;spacingLeft=4;spacingRight=4;overflow=hidden;points=[[0,0.5],[1,0.5]];portConstraint=eastwest;rotatable=0;whiteSpace=wrap;html=1;" vertex="1" parent="D-iu5UsWx28mBIkiza5J-12">
          <mxGeometry y="30" width="160" height="30" as="geometry" />
        </mxCell>
        <mxCell id="OQg_UJouni0hWR-9vPDj-1" value="show_id pk fk" style="text;strokeColor=none;fillColor=none;align=left;verticalAlign=middle;spacingLeft=4;spacingRight=4;overflow=hidden;points=[[0,0.5],[1,0.5]];portConstraint=eastwest;rotatable=0;whiteSpace=wrap;html=1;" vertex="1" parent="D-iu5UsWx28mBIkiza5J-12">
          <mxGeometry y="60" width="160" height="30" as="geometry" />
        </mxCell>
        <mxCell id="D-iu5UsWx28mBIkiza5J-15" value="time" style="text;strokeColor=none;fillColor=none;align=left;verticalAlign=middle;spacingLeft=4;spacingRight=4;overflow=hidden;points=[[0,0.5],[1,0.5]];portConstraint=eastwest;rotatable=0;whiteSpace=wrap;html=1;" vertex="1" parent="D-iu5UsWx28mBIkiza5J-12">
          <mxGeometry y="90" width="160" height="30" as="geometry" />
        </mxCell>
        <mxCell id="D-iu5UsWx28mBIkiza5J-16" value="ignited" style="swimlane;fontStyle=0;childLayout=stackLayout;horizontal=1;startSize=30;horizontalStack=0;resizeParent=1;resizeParentMax=0;resizeLast=0;collapsible=1;marginBottom=0;whiteSpace=wrap;html=1;" vertex="1" parent="1">
          <mxGeometry x="560" y="160" width="160" height="120" as="geometry" />
        </mxCell>
        <mxCell id="D-iu5UsWx28mBIkiza5J-17" value="firework_id pk fk" style="text;strokeColor=none;fillColor=none;align=left;verticalAlign=middle;spacingLeft=4;spacingRight=4;overflow=hidden;points=[[0,0.5],[1,0.5]];portConstraint=eastwest;rotatable=0;whiteSpace=wrap;html=1;" vertex="1" parent="D-iu5UsWx28mBIkiza5J-16">
          <mxGeometry y="30" width="160" height="30" as="geometry" />
        </mxCell>
        <mxCell id="D-iu5UsWx28mBIkiza5J-29" value="ignition_serial_number pk fk" style="text;strokeColor=none;fillColor=none;align=left;verticalAlign=middle;spacingLeft=4;spacingRight=4;overflow=hidden;points=[[0,0.5],[1,0.5]];portConstraint=eastwest;rotatable=0;whiteSpace=wrap;html=1;" vertex="1" parent="D-iu5UsWx28mBIkiza5J-16">
          <mxGeometry y="60" width="160" height="30" as="geometry" />
        </mxCell>
        <mxCell id="D-iu5UsWx28mBIkiza5J-18" value="quantity" style="text;strokeColor=none;fillColor=none;align=left;verticalAlign=middle;spacingLeft=4;spacingRight=4;overflow=hidden;points=[[0,0.5],[1,0.5]];portConstraint=eastwest;rotatable=0;whiteSpace=wrap;html=1;" vertex="1" parent="D-iu5UsWx28mBIkiza5J-16">
          <mxGeometry y="90" width="160" height="30" as="geometry" />
        </mxCell>
        <mxCell id="D-iu5UsWx28mBIkiza5J-20" value="firework" style="swimlane;fontStyle=0;childLayout=stackLayout;horizontal=1;startSize=30;horizontalStack=0;resizeParent=1;resizeParentMax=0;resizeLast=0;collapsible=1;marginBottom=0;whiteSpace=wrap;html=1;" vertex="1" parent="1">
          <mxGeometry x="800" y="160" width="120" height="210" as="geometry" />
        </mxCell>
        <mxCell id="D-iu5UsWx28mBIkiza5J-21" value="firework_id pk" style="text;strokeColor=none;fillColor=none;align=left;verticalAlign=middle;spacingLeft=4;spacingRight=4;overflow=hidden;points=[[0,0.5],[1,0.5]];portConstraint=eastwest;rotatable=0;whiteSpace=wrap;html=1;" vertex="1" parent="D-iu5UsWx28mBIkiza5J-20">
          <mxGeometry y="30" width="120" height="30" as="geometry" />
        </mxCell>
        <mxCell id="D-iu5UsWx28mBIkiza5J-22" value="description" style="text;strokeColor=none;fillColor=none;align=left;verticalAlign=middle;spacingLeft=4;spacingRight=4;overflow=hidden;points=[[0,0.5],[1,0.5]];portConstraint=eastwest;rotatable=0;whiteSpace=wrap;html=1;" vertex="1" parent="D-iu5UsWx28mBIkiza5J-20">
          <mxGeometry y="60" width="120" height="30" as="geometry" />
        </mxCell>
        <mxCell id="D-iu5UsWx28mBIkiza5J-25" value="type" style="text;strokeColor=none;fillColor=none;align=left;verticalAlign=middle;spacingLeft=4;spacingRight=4;overflow=hidden;points=[[0,0.5],[1,0.5]];portConstraint=eastwest;rotatable=0;whiteSpace=wrap;html=1;" vertex="1" parent="D-iu5UsWx28mBIkiza5J-20">
          <mxGeometry y="90" width="120" height="30" as="geometry" />
        </mxCell>
        <mxCell id="D-iu5UsWx28mBIkiza5J-26" value="height" style="text;strokeColor=none;fillColor=none;align=left;verticalAlign=middle;spacingLeft=4;spacingRight=4;overflow=hidden;points=[[0,0.5],[1,0.5]];portConstraint=eastwest;rotatable=0;whiteSpace=wrap;html=1;" vertex="1" parent="D-iu5UsWx28mBIkiza5J-20">
          <mxGeometry y="120" width="120" height="30" as="geometry" />
        </mxCell>
        <mxCell id="D-iu5UsWx28mBIkiza5J-23" value="duration" style="text;strokeColor=none;fillColor=none;align=left;verticalAlign=middle;spacingLeft=4;spacingRight=4;overflow=hidden;points=[[0,0.5],[1,0.5]];portConstraint=eastwest;rotatable=0;whiteSpace=wrap;html=1;" vertex="1" parent="D-iu5UsWx28mBIkiza5J-20">
          <mxGeometry y="150" width="120" height="30" as="geometry" />
        </mxCell>
        <mxCell id="D-iu5UsWx28mBIkiza5J-27" value="manufacturer" style="text;strokeColor=none;fillColor=none;align=left;verticalAlign=middle;spacingLeft=4;spacingRight=4;overflow=hidden;points=[[0,0.5],[1,0.5]];portConstraint=eastwest;rotatable=0;whiteSpace=wrap;html=1;" vertex="1" parent="D-iu5UsWx28mBIkiza5J-20">
          <mxGeometry y="180" width="120" height="30" as="geometry" />
        </mxCell>
        <mxCell id="D-iu5UsWx28mBIkiza5J-32" style="edgeStyle=orthogonalEdgeStyle;rounded=0;orthogonalLoop=1;jettySize=auto;html=1;entryX=0;entryY=0.5;entryDx=0;entryDy=0;" edge="1" parent="1" source="D-iu5UsWx28mBIkiza5J-17" target="D-iu5UsWx28mBIkiza5J-21">
          <mxGeometry relative="1" as="geometry" />
        </mxCell>
        <mxCell id="D-iu5UsWx28mBIkiza5J-33" style="edgeStyle=orthogonalEdgeStyle;rounded=0;orthogonalLoop=1;jettySize=auto;html=1;" edge="1" parent="1" source="D-iu5UsWx28mBIkiza5J-29" target="D-iu5UsWx28mBIkiza5J-14">
          <mxGeometry relative="1" as="geometry" />
        </mxCell>
        <mxCell id="OQg_UJouni0hWR-9vPDj-2" style="edgeStyle=orthogonalEdgeStyle;rounded=0;orthogonalLoop=1;jettySize=auto;html=1;" edge="1" parent="1" source="OQg_UJouni0hWR-9vPDj-1" target="D-iu5UsWx28mBIkiza5J-2">
          <mxGeometry relative="1" as="geometry" />
        </mxCell>
      </root>
    </mxGraphModel>
  </diagram>
  <diagram id="oCs1qx-HhD8FX8uVPTqt" name="Stránka-4">
    <mxGraphModel dx="522" dy="571" grid="1" gridSize="10" guides="1" tooltips="1" connect="1" arrows="1" fold="1" page="1" pageScale="1" pageWidth="827" pageHeight="1169" math="0" shadow="0">
      <root>
        <mxCell id="0" />
        <mxCell id="1" parent="0" />
        <mxCell id="YY9i9SLZGjP0_pc4kP0S-1" value="manufacturer" style="swimlane;fontStyle=0;childLayout=stackLayout;horizontal=1;startSize=30;horizontalStack=0;resizeParent=1;resizeParentMax=0;resizeLast=0;collapsible=1;marginBottom=0;whiteSpace=wrap;html=1;" vertex="1" parent="1">
          <mxGeometry x="80" y="80" width="160" height="120" as="geometry" />
        </mxCell>
        <mxCell id="YY9i9SLZGjP0_pc4kP0S-2" value="manufacturer_id pk" style="text;strokeColor=none;fillColor=none;align=left;verticalAlign=middle;spacingLeft=4;spacingRight=4;overflow=hidden;points=[[0,0.5],[1,0.5]];portConstraint=eastwest;rotatable=0;whiteSpace=wrap;html=1;" vertex="1" parent="YY9i9SLZGjP0_pc4kP0S-1">
          <mxGeometry y="30" width="160" height="30" as="geometry" />
        </mxCell>
        <mxCell id="YY9i9SLZGjP0_pc4kP0S-3" value="manufacturer_name u" style="text;strokeColor=none;fillColor=none;align=left;verticalAlign=middle;spacingLeft=4;spacingRight=4;overflow=hidden;points=[[0,0.5],[1,0.5]];portConstraint=eastwest;rotatable=0;whiteSpace=wrap;html=1;" vertex="1" parent="YY9i9SLZGjP0_pc4kP0S-1">
          <mxGeometry y="60" width="160" height="30" as="geometry" />
        </mxCell>
        <mxCell id="YY9i9SLZGjP0_pc4kP0S-4" value="country" style="text;strokeColor=none;fillColor=none;align=left;verticalAlign=middle;spacingLeft=4;spacingRight=4;overflow=hidden;points=[[0,0.5],[1,0.5]];portConstraint=eastwest;rotatable=0;whiteSpace=wrap;html=1;" vertex="1" parent="YY9i9SLZGjP0_pc4kP0S-1">
          <mxGeometry y="90" width="160" height="30" as="geometry" />
        </mxCell>
        <mxCell id="YY9i9SLZGjP0_pc4kP0S-5" value="ice_cream" style="swimlane;fontStyle=0;childLayout=stackLayout;horizontal=1;startSize=30;horizontalStack=0;resizeParent=1;resizeParentMax=0;resizeLast=0;collapsible=1;marginBottom=0;whiteSpace=wrap;html=1;" vertex="1" parent="1">
          <mxGeometry x="320" y="80" width="160" height="180" as="geometry" />
        </mxCell>
        <mxCell id="YY9i9SLZGjP0_pc4kP0S-6" value="ice_cream_id pk" style="text;strokeColor=none;fillColor=none;align=left;verticalAlign=middle;spacingLeft=4;spacingRight=4;overflow=hidden;points=[[0,0.5],[1,0.5]];portConstraint=eastwest;rotatable=0;whiteSpace=wrap;html=1;" vertex="1" parent="YY9i9SLZGjP0_pc4kP0S-5">
          <mxGeometry y="30" width="160" height="30" as="geometry" />
        </mxCell>
        <mxCell id="YY9i9SLZGjP0_pc4kP0S-7" value="manufacturer_id fk" style="text;strokeColor=none;fillColor=none;align=left;verticalAlign=middle;spacingLeft=4;spacingRight=4;overflow=hidden;points=[[0,0.5],[1,0.5]];portConstraint=eastwest;rotatable=0;whiteSpace=wrap;html=1;" vertex="1" parent="YY9i9SLZGjP0_pc4kP0S-5">
          <mxGeometry y="60" width="160" height="30" as="geometry" />
        </mxCell>
        <mxCell id="YY9i9SLZGjP0_pc4kP0S-8" value="ice_cream_name" style="text;strokeColor=none;fillColor=none;align=left;verticalAlign=middle;spacingLeft=4;spacingRight=4;overflow=hidden;points=[[0,0.5],[1,0.5]];portConstraint=eastwest;rotatable=0;whiteSpace=wrap;html=1;" vertex="1" parent="YY9i9SLZGjP0_pc4kP0S-5">
          <mxGeometry y="90" width="160" height="30" as="geometry" />
        </mxCell>
        <mxCell id="YY9i9SLZGjP0_pc4kP0S-10" value="manufacturing_cost" style="text;strokeColor=none;fillColor=none;align=left;verticalAlign=middle;spacingLeft=4;spacingRight=4;overflow=hidden;points=[[0,0.5],[1,0.5]];portConstraint=eastwest;rotatable=0;whiteSpace=wrap;html=1;" vertex="1" parent="YY9i9SLZGjP0_pc4kP0S-5">
          <mxGeometry y="120" width="160" height="30" as="geometry" />
        </mxCell>
        <mxCell id="YY9i9SLZGjP0_pc4kP0S-12" value="keyword[0..*]" style="text;strokeColor=none;fillColor=none;align=left;verticalAlign=middle;spacingLeft=4;spacingRight=4;overflow=hidden;points=[[0,0.5],[1,0.5]];portConstraint=eastwest;rotatable=0;whiteSpace=wrap;html=1;" vertex="1" parent="YY9i9SLZGjP0_pc4kP0S-5">
          <mxGeometry y="150" width="160" height="30" as="geometry" />
        </mxCell>
        <mxCell id="YY9i9SLZGjP0_pc4kP0S-11" style="edgeStyle=orthogonalEdgeStyle;rounded=0;orthogonalLoop=1;jettySize=auto;html=1;" edge="1" parent="1" source="YY9i9SLZGjP0_pc4kP0S-7" target="YY9i9SLZGjP0_pc4kP0S-2">
          <mxGeometry relative="1" as="geometry" />
        </mxCell>
      </root>
    </mxGraphModel>
  </diagram>
  <diagram id="XSK3wLkGEzlNs8qWhC-d" name="Stránka-5">
    <mxGraphModel dx="746" dy="816" grid="1" gridSize="10" guides="1" tooltips="1" connect="1" arrows="1" fold="1" page="1" pageScale="1" pageWidth="827" pageHeight="1169" math="0" shadow="0">
      <root>
        <mxCell id="0" />
        <mxCell id="1" parent="0" />
        <mxCell id="p2FbCBTn_1gimDgQXw1W-1" value="ice_cream" style="swimlane;fontStyle=0;childLayout=stackLayout;horizontal=1;startSize=30;horizontalStack=0;resizeParent=1;resizeParentMax=0;resizeLast=0;collapsible=1;marginBottom=0;whiteSpace=wrap;html=1;" vertex="1" parent="1">
          <mxGeometry x="320" y="80" width="160" height="180" as="geometry" />
        </mxCell>
        <mxCell id="p2FbCBTn_1gimDgQXw1W-2" value="ice_cream_id pk" style="text;strokeColor=none;fillColor=none;align=left;verticalAlign=middle;spacingLeft=4;spacingRight=4;overflow=hidden;points=[[0,0.5],[1,0.5]];portConstraint=eastwest;rotatable=0;whiteSpace=wrap;html=1;" vertex="1" parent="p2FbCBTn_1gimDgQXw1W-1">
          <mxGeometry y="30" width="160" height="30" as="geometry" />
        </mxCell>
        <mxCell id="p2FbCBTn_1gimDgQXw1W-3" value="manufacturer_id fk" style="text;strokeColor=none;fillColor=none;align=left;verticalAlign=middle;spacingLeft=4;spacingRight=4;overflow=hidden;points=[[0,0.5],[1,0.5]];portConstraint=eastwest;rotatable=0;whiteSpace=wrap;html=1;" vertex="1" parent="p2FbCBTn_1gimDgQXw1W-1">
          <mxGeometry y="60" width="160" height="30" as="geometry" />
        </mxCell>
        <mxCell id="p2FbCBTn_1gimDgQXw1W-4" value="ice_cream_name" style="text;strokeColor=none;fillColor=none;align=left;verticalAlign=middle;spacingLeft=4;spacingRight=4;overflow=hidden;points=[[0,0.5],[1,0.5]];portConstraint=eastwest;rotatable=0;whiteSpace=wrap;html=1;" vertex="1" parent="p2FbCBTn_1gimDgQXw1W-1">
          <mxGeometry y="90" width="160" height="30" as="geometry" />
        </mxCell>
        <mxCell id="p2FbCBTn_1gimDgQXw1W-5" value="manufacturing_cost" style="text;strokeColor=none;fillColor=none;align=left;verticalAlign=middle;spacingLeft=4;spacingRight=4;overflow=hidden;points=[[0,0.5],[1,0.5]];portConstraint=eastwest;rotatable=0;whiteSpace=wrap;html=1;" vertex="1" parent="p2FbCBTn_1gimDgQXw1W-1">
          <mxGeometry y="120" width="160" height="30" as="geometry" />
        </mxCell>
        <mxCell id="p2FbCBTn_1gimDgQXw1W-6" value="keyword[0..*]" style="text;strokeColor=none;fillColor=none;align=left;verticalAlign=middle;spacingLeft=4;spacingRight=4;overflow=hidden;points=[[0,0.5],[1,0.5]];portConstraint=eastwest;rotatable=0;whiteSpace=wrap;html=1;" vertex="1" parent="p2FbCBTn_1gimDgQXw1W-1">
          <mxGeometry y="150" width="160" height="30" as="geometry" />
        </mxCell>
        <mxCell id="p2FbCBTn_1gimDgQXw1W-7" value="contains" style="swimlane;fontStyle=0;childLayout=stackLayout;horizontal=1;startSize=30;horizontalStack=0;resizeParent=1;resizeParentMax=0;resizeLast=0;collapsible=1;marginBottom=0;whiteSpace=wrap;html=1;" vertex="1" parent="1">
          <mxGeometry x="560" y="80" width="160" height="90" as="geometry" />
        </mxCell>
        <mxCell id="p2FbCBTn_1gimDgQXw1W-8" value="ice_cream_id pk fk" style="text;strokeColor=none;fillColor=none;align=left;verticalAlign=middle;spacingLeft=4;spacingRight=4;overflow=hidden;points=[[0,0.5],[1,0.5]];portConstraint=eastwest;rotatable=0;whiteSpace=wrap;html=1;" vertex="1" parent="p2FbCBTn_1gimDgQXw1W-7">
          <mxGeometry y="30" width="160" height="30" as="geometry" />
        </mxCell>
        <mxCell id="p2FbCBTn_1gimDgQXw1W-9" value="keyword_id pk fk" style="text;strokeColor=none;fillColor=none;align=left;verticalAlign=middle;spacingLeft=4;spacingRight=4;overflow=hidden;points=[[0,0.5],[1,0.5]];portConstraint=eastwest;rotatable=0;whiteSpace=wrap;html=1;" vertex="1" parent="p2FbCBTn_1gimDgQXw1W-7">
          <mxGeometry y="60" width="160" height="30" as="geometry" />
        </mxCell>
        <mxCell id="p2FbCBTn_1gimDgQXw1W-13" value="keyword" style="swimlane;fontStyle=0;childLayout=stackLayout;horizontal=1;startSize=30;horizontalStack=0;resizeParent=1;resizeParentMax=0;resizeLast=0;collapsible=1;marginBottom=0;whiteSpace=wrap;html=1;" vertex="1" parent="1">
          <mxGeometry x="800" y="80" width="160" height="90" as="geometry" />
        </mxCell>
        <mxCell id="p2FbCBTn_1gimDgQXw1W-14" value="keyword_id pk" style="text;strokeColor=none;fillColor=none;align=left;verticalAlign=middle;spacingLeft=4;spacingRight=4;overflow=hidden;points=[[0,0.5],[1,0.5]];portConstraint=eastwest;rotatable=0;whiteSpace=wrap;html=1;" vertex="1" parent="p2FbCBTn_1gimDgQXw1W-13">
          <mxGeometry y="30" width="160" height="30" as="geometry" />
        </mxCell>
        <mxCell id="p2FbCBTn_1gimDgQXw1W-15" value="keyword_name" style="text;strokeColor=none;fillColor=none;align=left;verticalAlign=middle;spacingLeft=4;spacingRight=4;overflow=hidden;points=[[0,0.5],[1,0.5]];portConstraint=eastwest;rotatable=0;whiteSpace=wrap;html=1;" vertex="1" parent="p2FbCBTn_1gimDgQXw1W-13">
          <mxGeometry y="60" width="160" height="30" as="geometry" />
        </mxCell>
        <mxCell id="p2FbCBTn_1gimDgQXw1W-19" style="edgeStyle=orthogonalEdgeStyle;rounded=0;orthogonalLoop=1;jettySize=auto;html=1;" edge="1" parent="1" source="p2FbCBTn_1gimDgQXw1W-8" target="p2FbCBTn_1gimDgQXw1W-2">
          <mxGeometry relative="1" as="geometry" />
        </mxCell>
        <mxCell id="p2FbCBTn_1gimDgQXw1W-20" style="edgeStyle=orthogonalEdgeStyle;rounded=0;orthogonalLoop=1;jettySize=auto;html=1;" edge="1" parent="1" source="p2FbCBTn_1gimDgQXw1W-9" target="p2FbCBTn_1gimDgQXw1W-14">
          <mxGeometry relative="1" as="geometry" />
        </mxCell>
      </root>
    </mxGraphModel>
  </diagram>
</mxfile>
